<svg version="1.1" id="Layer_1" xmlns="http://www.w3.org/2000/svg" xmlns:xlink="http://www.w3.org/1999/xlink" x="0px" y="0px"
	 width="100%" viewBox="0 0 529 399" enable-background="new 0 0 529 399" xml:space="preserve">
<path fill="#FDFEFE" opacity="1.000000" stroke="none" 
	d="
M315.000000,400.000000 
	C210.000000,400.000000 105.500000,400.000000 1.000000,400.000000 
	C1.000000,267.000000 1.000000,134.000000 1.000000,1.000000 
	C177.333328,1.000000 353.666656,1.000000 530.000000,1.000000 
	C530.000000,134.000000 530.000000,267.000000 530.000000,400.000000 
	C458.500000,400.000000 387.000000,400.000000 315.000000,400.000000 
M276.842743,45.792030 
	C276.842743,45.792030 276.755707,45.755070 276.137207,45.822044 
	C275.423767,46.546986 274.710358,47.271923 273.528656,48.213955 
	C273.295380,48.660007 273.062103,49.106060 272.186310,49.839455 
	C271.315826,50.593605 270.133606,51.184612 269.636658,52.134232 
	C268.423950,54.451721 267.528595,56.935253 266.505463,59.351929 
	C268.866180,60.197643 271.184845,61.590107 273.596375,61.775791 
	C278.692200,62.168163 283.836609,61.929779 289.008270,62.741001 
	C289.147369,63.780064 289.286469,64.819130 289.196045,66.741989 
	C289.377991,70.877319 289.559937,75.012642 289.597107,79.883255 
	C289.645721,80.877487 289.694336,81.871719 289.573608,83.701859 
	C289.628754,94.851089 289.683899,106.000313 289.513733,117.898010 
	C288.856842,126.658897 286.818665,134.991653 281.033051,141.870560 
	C278.338837,145.073837 275.096497,147.816116 271.313721,150.893723 
	C263.713287,154.274597 255.916153,156.179886 247.539825,154.347137 
	C230.623001,150.645721 219.354675,136.368729 219.269211,117.990570 
	C219.142227,90.681160 219.227585,63.370808 219.196808,36.060886 
	C219.189987,30.007936 218.349380,29.196751 212.203598,29.179539 
	C201.712646,29.150156 191.221558,29.175566 180.730545,29.161219 
	C169.923065,29.146439 169.924713,29.137684 169.924088,39.699963 
	C169.922653,64.345551 169.859787,88.991386 169.963242,113.636536 
	C169.986206,119.108131 170.128220,124.653297 171.008026,130.035004 
	C176.047729,160.862198 192.784897,182.697464 221.727875,194.859772 
	C223.648254,195.666748 225.895599,195.695663 228.279709,196.763443 
	C240.074768,201.233597 252.250381,201.815659 264.589020,200.086731 
	C287.815765,196.832153 306.649261,185.955719 320.462921,166.926987 
	C331.819153,151.283447 336.251709,133.487762 336.048584,114.311882 
	C335.879333,98.334663 336.083588,82.353676 335.956573,66.375679 
	C335.929474,62.968662 336.946075,61.527580 340.509338,61.776142 
	C344.153168,62.030327 347.898712,62.249729 351.464783,61.663414 
	C353.619690,61.309116 355.778381,59.650890 357.382874,58.031193 
	C357.909027,57.500053 357.140198,54.831985 356.213806,53.844410 
	C342.787292,39.531227 329.212494,25.357298 315.727020,11.099122 
	C313.057373,8.276497 310.641632,8.350944 308.165222,11.200298 
	C307.082855,12.445651 306.030060,13.716723 304.368286,15.266068 
	C301.225189,18.834709 298.082092,22.403351 294.411560,26.204481 
	C293.934387,26.790661 293.457214,27.376841 292.379120,28.222561 
	C291.520386,29.425097 290.661621,30.627632 289.984344,31.933912 
	C289.984344,31.933912 289.826355,31.797005 289.143127,31.864336 
	C285.726685,35.559662 282.310242,39.254990 278.461029,43.134068 
	C278.189880,43.323242 278.020081,43.579544 277.416870,44.206581 
	C277.203491,44.757641 276.990143,45.308704 276.842743,45.792030 
M311.388031,256.322021 
	C307.596375,256.391724 303.804718,256.461426 299.362122,256.269318 
	C298.911194,256.356415 298.460266,256.443481 297.187805,256.396484 
	C296.690552,257.306396 295.763184,258.214478 295.759338,259.126434 
	C295.678436,278.347321 295.669098,297.568848 295.804077,316.789185 
	C295.810608,317.714325 297.268860,318.629272 298.815216,319.812225 
	C303.402985,319.812225 307.990753,319.812225 312.998322,319.812225 
	C312.998322,317.283142 312.997955,315.484070 312.998383,313.684998 
	C313.000336,305.205963 312.876038,296.724548 313.036835,288.248535 
	C313.235016,277.803314 319.213409,272.063477 329.688263,271.953583 
	C331.310364,271.936584 332.932800,271.951202 334.958893,271.951202 
	C335.305450,266.478027 335.625336,261.426208 335.958466,256.165039 
	C326.544708,253.712387 319.458496,256.959259 313.325256,264.181152 
	C313.059387,261.863739 312.877533,260.278503 312.644470,258.728973 
	C312.644470,258.728973 312.716522,258.662262 312.946594,258.152191 
	C312.630127,257.660187 312.313690,257.168213 311.388031,256.322021 
M244.058792,302.948120 
	C244.058792,302.948120 244.218628,302.825806 244.157822,302.042694 
	C243.389572,298.194397 242.063797,294.361267 241.958847,290.494965 
	C241.658325,279.425781 241.853073,268.343170 241.853073,257.159210 
	C240.706375,257.044128 240.074615,256.920624 239.444229,256.927307 
	C235.632339,256.967712 231.820786,257.037872 227.346573,256.976379 
	C226.903442,257.024567 226.460327,257.072723 225.164658,257.091125 
	C225.048019,272.038788 224.931381,286.986420 224.641129,302.653778 
	C225.165344,308.399353 227.509262,313.214020 232.028030,316.868927 
	C240.008209,323.323517 258.953888,322.802734 265.907928,313.622742 
	C266.044891,313.727783 266.181885,313.832825 266.117584,314.774933 
	C265.563019,318.512604 266.724518,320.408081 270.940948,319.978455 
	C274.235992,319.642700 277.628510,320.195862 280.905121,319.780853 
	C282.144196,319.623901 284.152832,317.869324 284.163635,316.825897 
	C284.362061,297.682068 284.355377,278.535278 284.192139,259.390808 
	C284.182892,258.307281 282.509674,256.373657 281.514954,256.308868 
	C276.589111,255.988068 271.630951,256.162720 266.388855,256.162720 
	C266.388855,260.836029 266.388855,264.933960 266.188110,269.838623 
	C266.253723,271.215881 266.319336,272.593140 266.145325,274.879547 
	C266.222839,279.596527 266.300323,284.313538 266.183563,289.666992 
	C266.248840,290.100800 266.314148,290.534576 266.146973,291.735291 
	C264.376617,304.718933 255.155472,309.356598 244.058792,302.948120 
M192.126709,374.818237 
	C189.750870,374.884094 187.375015,374.949951 184.519989,374.803040 
	C184.353058,374.854797 184.186127,374.906555 183.452621,374.329834 
	C183.452621,366.399200 183.452621,358.468536 183.452621,350.461945 
	C180.691467,350.461945 178.823654,350.461945 176.906158,350.461945 
	C176.906158,360.730316 176.906158,370.639923 176.906158,380.586182 
	C182.901962,380.586182 188.540192,380.586182 195.097321,380.683441 
	C196.324997,378.080597 198.881744,374.984955 192.126709,374.818237 
M225.528275,355.845947 
	C225.314606,353.987762 225.100922,352.129547 223.973221,350.141510 
	C217.750336,350.141510 211.527451,350.141510 205.537903,350.141510 
	C205.537903,360.876343 205.537903,370.730896 205.537903,380.666687 
	C212.295563,380.666687 218.592163,380.666687 225.528336,380.875977 
	C225.810074,380.196198 226.091812,379.516449 226.512619,378.282898 
	C226.468506,377.907623 226.424377,377.532379 226.673508,376.568481 
	C226.065262,376.210358 225.457016,375.852234 223.953690,375.313477 
	C220.067749,375.313477 216.181824,375.313477 211.748520,375.313477 
	C211.748520,372.792694 211.748520,370.867310 212.618973,368.537445 
	C215.351013,368.470886 218.114197,368.620209 220.799957,368.232849 
	C221.893372,368.075134 222.818649,366.751862 223.897415,365.134064 
	C223.017563,364.144531 222.234344,362.437347 221.239319,362.303375 
	C218.522644,361.937683 215.716629,362.235474 212.630676,361.782654 
	C212.329468,361.541779 212.028275,361.300903 211.800873,360.240448 
	C211.785141,359.143768 211.769394,358.047089 212.233292,356.633575 
	C212.467621,356.334564 212.701950,356.035553 213.855850,355.854065 
	C217.531723,355.799835 221.207596,355.745605 225.528275,355.845947 
M143.976929,294.667511 
	C141.615952,302.745056 136.666229,306.523926 129.675812,305.585693 
	C122.832024,304.667175 119.929123,300.629059 119.868004,291.789185 
	C119.815010,284.124481 119.825027,276.459229 119.831795,268.794220 
	C119.844337,254.591049 119.851837,254.591217 105.513702,256.209595 
	C105.348877,256.228210 105.107491,256.147247 105.025459,256.232178 
	C104.116707,257.172913 102.454651,258.139984 102.457909,259.094940 
	C102.508904,274.078674 102.218575,289.097931 103.191307,304.031860 
	C103.822350,313.720032 111.613388,320.164642 121.323296,320.936981 
	C129.034851,321.550385 136.279602,320.338654 142.212280,314.720398 
	C142.759811,314.201874 143.885788,314.294128 144.478531,314.975983 
	C144.572113,316.562012 144.665680,318.148010 144.792511,320.297485 
	C150.918793,319.984894 156.529648,319.698608 161.915924,319.423798 
	C161.915924,297.901642 161.915924,277.564301 161.915924,257.192139 
	C155.967285,257.192139 150.390472,257.192139 144.369705,257.192139 
	C144.369705,269.677612 144.369705,281.938995 143.976929,294.667511 
M450.692749,304.689453 
	C437.236206,306.388611 429.731537,299.813263 429.672485,286.179932 
	C429.619110,273.852692 429.645142,261.525116 429.645294,249.197678 
	C429.645447,233.812943 429.652344,233.899414 414.355560,234.406799 
	C411.254761,234.509644 410.377960,235.575073 410.398834,238.536438 
	C410.514069,254.861115 410.221649,271.192078 410.555023,287.510925 
	C410.919067,305.328979 420.250610,317.410675 436.039246,320.523163 
	C441.189240,321.538391 446.676483,321.664062 451.924561,321.211639 
	C470.078644,319.646606 481.880249,307.976410 482.654938,289.817261 
	C483.392700,272.523102 482.945679,255.176025 482.832947,237.853455 
	C482.825653,236.734787 481.270294,234.718079 480.344360,234.663666 
	C475.071106,234.353958 469.770294,234.513474 463.961792,234.513474 
	C463.961792,236.677963 463.962250,238.299667 463.961700,239.921356 
	C463.956329,255.747116 464.001709,271.573120 463.925446,287.398529 
	C463.882416,296.331512 460.020172,301.532562 450.692749,304.689453 
M49.334122,319.838715 
	C56.014603,319.824646 56.010090,319.824677 55.986336,313.019989 
	C55.972382,309.022675 55.973557,305.025299 55.971478,301.027954 
	C55.969185,296.623566 55.970951,292.219177 55.970951,287.322937 
	C67.467323,287.322937 78.066750,287.322937 88.613983,287.322937 
	C88.613983,281.556915 88.613983,276.330048 88.613983,270.595947 
	C77.601852,270.595947 67.009300,270.595947 56.257729,270.595947 
	C56.257729,263.996368 56.257729,257.923767 56.257729,251.120300 
	C68.888229,251.120300 81.247704,251.120300 93.592598,251.120300 
	C93.592598,245.301056 93.592598,240.219971 93.592598,234.868439 
	C74.689568,234.868439 56.124420,234.868439 37.251907,234.868439 
	C37.251907,263.175781 37.251907,291.212952 37.251907,319.838074 
	C41.141685,319.838074 44.763283,319.838074 49.334122,319.838715 
M361.874268,302.676361 
	C360.215607,299.714142 358.556976,296.751892 356.301666,292.724060 
	C360.141388,292.724060 362.119659,292.725372 364.097961,292.723877 
	C374.747253,292.715759 385.396667,292.682770 396.045807,292.716400 
	C398.551697,292.724304 400.706482,292.677612 400.812775,289.259888 
	C401.238190,275.584198 396.317535,261.810242 381.369690,256.683990 
	C366.778778,251.680115 350.496399,256.947540 343.439240,269.664520 
	C336.369385,282.404388 336.188934,295.700928 344.177277,308.063873 
	C351.858978,319.952271 364.028687,322.462524 377.163940,320.814789 
	C385.701874,319.743774 392.759369,315.701935 397.623077,307.710968 
	C393.812500,304.791443 390.293335,302.095184 386.862030,299.466248 
	C375.964813,307.927094 370.864929,308.656921 361.874268,302.676361 
M180.426208,256.069946 
	C177.502182,256.069946 174.578140,256.069946 171.361298,256.069946 
	C171.361298,261.509766 171.361298,266.050507 171.361298,271.021210 
	C174.665298,271.021210 177.589279,271.021210 180.128510,271.021210 
	C180.609909,271.578674 180.812973,271.703888 180.813995,271.830719 
	C180.895721,281.977448 180.891220,292.125427 181.048203,302.270874 
	C181.212677,312.901215 187.057556,319.773285 197.457581,320.742859 
	C202.176956,321.182861 207.055008,320.375824 211.803055,319.716522 
	C212.918564,319.561584 214.646301,317.706573 214.636154,316.647644 
	C214.598969,312.763977 213.948151,308.886200 213.498566,304.731049 
	C210.773758,305.147003 208.833481,305.560425 206.872604,305.718903 
	C202.373993,306.082581 198.983185,304.107361 198.791931,299.557037 
	C198.397354,290.168823 198.673141,280.752441 198.673141,270.695618 
	C204.017960,270.695618 208.911072,270.695618 213.765686,270.695618 
	C213.765686,265.612457 213.765686,261.197723 213.765686,256.192322 
	C208.560715,256.192322 203.658447,256.192322 198.351303,256.192322 
	C198.351303,250.495712 198.351303,245.389313 198.351303,239.742859 
	C192.375183,240.034546 186.852081,240.304123 181.012283,240.589157 
	C181.012283,246.014282 181.012283,250.662476 180.426208,256.069946 
M254.397720,374.153931 
	C253.469086,374.500122 252.566727,375.012939 251.607376,375.164093 
	C247.128052,375.870087 243.789627,374.364441 241.978714,370.000946 
	C240.069351,365.400177 241.177536,359.759430 244.802551,357.336609 
	C248.609604,354.792053 252.360992,355.071594 255.602951,358.484131 
	C258.413544,361.442596 260.461243,359.130463 262.830414,357.903717 
	C258.347290,350.156219 250.148544,347.564240 242.611542,351.129059 
	C235.592224,354.448975 232.088776,364.349487 235.596405,372.477600 
	C238.742401,379.767639 246.923447,383.264984 254.816132,380.612183 
	C261.848633,378.248474 265.596283,371.337067 263.732697,363.961121 
	C258.840881,363.961121 253.915451,363.961121 248.761169,363.961121 
	C248.761169,365.769043 248.761169,367.324310 248.761169,369.098511 
	C251.657745,369.268250 254.245163,369.419891 257.889496,369.633453 
	C256.626984,371.441498 255.853287,372.549500 254.397720,374.153931 
M114.431694,379.199127 
	C115.485283,379.691254 116.493065,380.361877 117.600052,380.645874 
	C123.816124,382.240845 129.598129,381.495239 134.166656,376.622192 
	C138.842773,371.634399 139.558563,365.621948 137.295593,359.403564 
	C135.089874,353.342438 130.347427,350.255737 123.988724,349.668610 
	C117.242523,349.045685 110.952187,352.889099 108.443405,359.085632 
	C105.670387,365.934784 107.741837,373.559082 114.431694,379.199127 
M366.253540,350.066254 
	C362.503204,350.066254 358.752899,350.066254 354.986969,350.066254 
	C354.986969,360.708069 354.986969,370.607056 354.986969,380.436584 
	C357.213501,380.436584 359.086761,380.436584 361.282410,380.436584 
	C361.282410,378.048676 361.084045,376.038666 361.353271,374.093384 
	C361.528076,372.830353 362.559753,370.579926 362.905914,370.635956 
	C364.495880,370.893219 366.209503,371.534515 367.432465,372.566711 
	C368.508179,373.474670 369.204163,375.008240 369.698669,376.396973 
	C371.313568,380.932251 374.441315,381.793884 379.147827,380.266663 
	C377.088196,376.587433 375.087769,373.013916 373.109985,369.480835 
	C378.009399,364.685486 379.420532,360.711395 377.602844,356.248505 
	C375.715851,351.615479 371.854675,350.081726 366.253540,350.066254 
M295.525574,380.613068 
	C295.723785,378.932617 295.921967,377.252197 296.196167,374.927094 
	C290.917267,374.927094 286.364197,374.927094 281.865875,374.927094 
	C281.865875,372.418854 281.865875,370.503357 281.865875,367.965942 
	C285.897217,367.965942 289.617432,367.965942 293.402222,367.965942 
	C293.402222,365.760529 293.402222,364.189209 293.402222,362.015472 
	C289.380341,362.015472 285.660950,362.015472 281.489746,362.015472 
	C281.643890,359.671753 281.755951,357.967468 281.895782,355.841522 
	C286.664093,355.841522 290.918182,355.841522 295.315857,355.841522 
	C295.315857,353.698883 295.315857,352.024231 295.315857,350.284912 
	C288.288879,350.284912 281.698792,350.284912 274.914368,350.284912 
	C274.914368,360.551971 274.914368,370.561157 274.914368,380.824707 
	C281.780334,380.824707 288.245667,380.824707 295.525574,380.613068 
M92.563797,350.793640 
	C85.533630,348.204193 79.409592,349.591248 74.504189,355.264465 
	C70.303474,360.122711 69.803314,368.272491 73.208351,374.072388 
	C76.646141,379.928040 82.080795,381.971466 88.532051,381.256134 
	C93.539253,380.700928 97.549744,378.405853 99.618782,372.928864 
	C97.725845,372.044678 96.128853,371.298737 94.639816,370.603210 
	C89.406639,375.947418 84.921402,376.724457 81.029037,373.176270 
	C77.287079,369.765198 76.961754,362.477875 80.375603,358.538483 
	C83.906883,354.463562 88.481178,355.067719 95.096947,360.608063 
	C96.582687,359.846313 98.145828,359.044861 100.732407,357.718689 
	C97.812386,355.110352 95.541588,353.081940 92.563797,350.793640 
M398.533173,380.909851 
	C402.449066,380.909851 406.364929,380.909851 410.029388,380.909851 
	C411.420288,376.467255 410.287872,374.816986 406.275452,375.106415 
	C403.016357,375.341492 399.726776,375.154144 396.207184,375.154144 
	C396.207184,372.570526 396.207184,370.649536 396.207184,368.042786 
	C400.130737,368.042786 403.857727,368.042786 407.467865,368.042786 
	C408.206390,362.070557 408.206390,362.067719 403.025482,362.049805 
	C400.767059,362.041992 398.508545,362.048492 395.863525,362.048492 
	C396.029480,359.619293 396.137177,358.042816 396.284515,355.886383 
	C401.028931,355.886383 405.420410,355.886383 409.897827,355.886383 
	C409.897827,353.681732 409.897827,352.095947 409.897827,350.360596 
	C402.892700,350.360596 396.179169,350.360596 389.382294,350.360596 
	C389.382294,360.612518 389.382294,370.510132 389.382294,380.910309 
	C392.305695,380.910309 394.931763,380.910309 398.533173,380.909851 
M344.566254,364.081421 
	C346.062469,356.686584 343.336945,351.333282 336.833984,350.474121 
	C331.847443,349.815308 326.704132,350.343048 321.541290,350.343048 
	C321.541290,360.673096 321.541290,370.559784 321.541290,380.606995 
	C323.795319,380.606995 325.703156,380.606995 327.891144,380.606995 
	C328.064850,377.275024 328.225128,374.200653 328.394867,370.944519 
	C334.474640,370.331818 341.121307,371.775909 344.566254,364.081421 
M441.911194,367.242706 
	C446.332672,359.955627 444.067474,351.998260 436.566956,350.623627 
	C431.521729,349.699005 426.169861,350.447540 420.956177,350.447540 
	C420.956177,360.740234 420.956177,370.615784 420.956177,380.525513 
	C423.229126,380.525513 425.124390,380.525513 427.247375,380.525513 
	C427.407654,377.128143 427.552155,374.065186 427.648956,372.013458 
	C432.765869,370.447083 437.074890,369.128021 441.911194,367.242706 
M147.728806,352.639923 
	C147.728806,361.883423 147.728806,371.126953 147.728806,380.563873 
	C154.579742,380.563873 160.753220,380.563873 166.525909,380.563873 
	C166.525909,378.693573 166.525909,377.131775 166.525909,374.791321 
	C162.865921,374.791321 158.839493,374.791321 154.241760,374.791321 
	C154.241760,366.142761 154.241760,358.264374 154.241760,349.044281 
	C151.446259,350.241913 149.597275,351.034058 147.728806,352.639923 
z"/>
<path fill="#60C8D0" opacity="1.000000" stroke="none" 
	d="
M304.963867,14.976125 
	C306.030060,13.716723 307.082855,12.445651 308.165222,11.200298 
	C310.641632,8.350944 313.057373,8.276497 315.727020,11.099122 
	C329.212494,25.357298 342.787292,39.531227 356.213806,53.844410 
	C357.140198,54.831985 357.909027,57.500053 357.382874,58.031193 
	C355.778381,59.650890 353.619690,61.309116 351.464783,61.663414 
	C347.898712,62.249729 344.153168,62.030327 340.509338,61.776142 
	C336.946075,61.527580 335.929474,62.968662 335.956573,66.375679 
	C336.083588,82.353676 335.879333,98.334663 336.048584,114.311882 
	C336.251709,133.487762 331.819153,151.283447 320.462921,166.926987 
	C306.649261,185.955719 287.815765,196.832153 264.589020,200.086731 
	C252.250381,201.815659 240.074768,201.233597 228.193481,196.074036 
	C229.953568,194.289719 231.784561,193.167938 233.648651,192.104141 
	C249.358963,183.138611 262.131836,171.131927 271.307404,155.476410 
	C272.059937,154.192413 271.860016,152.350204 272.102631,150.767365 
	C275.096497,147.816116 278.338837,145.073837 281.033051,141.870560 
	C286.818665,134.991653 288.856842,126.658897 289.969879,117.238495 
	C290.578125,105.858574 290.746307,95.138298 290.833069,84.417358 
	C290.837219,83.903191 290.122772,83.383217 289.742950,82.865952 
	C289.694336,81.871719 289.645721,80.877487 290.011536,79.232628 
	C290.624054,74.230125 290.822174,69.878242 291.020294,65.526367 
	C290.488708,65.636971 289.957123,65.747574 289.425537,65.858185 
	C289.286469,64.819130 289.147369,63.780064 288.903809,61.954323 
	C283.955963,60.778900 279.095398,60.530235 274.277100,59.937737 
	C272.119232,59.672379 270.046143,58.717770 267.955444,58.082287 
	C269.981262,54.536407 271.405029,52.044262 272.828827,49.552116 
	C273.062103,49.106060 273.295380,48.660007 274.129272,48.105042 
	C275.405182,47.249111 276.080444,46.502090 276.755707,45.755070 
	C276.755707,45.755070 276.842743,45.792030 277.112823,45.720566 
	C277.572449,45.067055 277.762024,44.485008 277.951569,43.902966 
	C278.020081,43.579544 278.189880,43.323242 279.032043,43.032291 
	C283.010834,39.219345 286.418579,35.508175 289.826355,31.797005 
	C289.826355,31.797005 289.984344,31.933912 290.270264,31.907345 
	C291.364166,30.574858 292.172119,29.268940 292.980042,27.963020 
	C293.457214,27.376841 293.934387,26.790661 295.026123,26.069817 
	C299.492279,22.914980 304.050873,20.496265 304.963867,14.976125 
z"/>
<path fill="#053A6A" opacity="1.000000" stroke="none" 
	d="
M271.708191,150.830536 
	C271.860016,152.350204 272.059937,154.192413 271.307404,155.476410 
	C262.131836,171.131927 249.358963,183.138611 233.648651,192.104141 
	C231.784561,193.167938 229.953568,194.289719 228.049042,195.735550 
	C225.895599,195.695663 223.648254,195.666748 221.727875,194.859772 
	C192.784897,182.697464 176.047729,160.862198 171.008026,130.035004 
	C170.128220,124.653297 169.986206,119.108131 169.963242,113.636536 
	C169.859787,88.991386 169.922653,64.345551 169.924088,39.699963 
	C169.924713,29.137684 169.923065,29.146439 180.730545,29.161219 
	C191.221558,29.175566 201.712646,29.150156 212.203598,29.179539 
	C218.349380,29.196751 219.189987,30.007936 219.196808,36.060886 
	C219.227585,63.370808 219.142227,90.681160 219.269211,117.990570 
	C219.354675,136.368729 230.623001,150.645721 247.539825,154.347137 
	C255.916153,156.179886 263.713287,154.274597 271.708191,150.830536 
z"/>
<path fill="#0C3D6B" opacity="1.000000" stroke="none" 
	d="
M451.099731,304.620239 
	C460.020172,301.532562 463.882416,296.331512 463.925446,287.398529 
	C464.001709,271.573120 463.956329,255.747116 463.961700,239.921356 
	C463.962250,238.299667 463.961792,236.677963 463.961792,234.513474 
	C469.770294,234.513474 475.071106,234.353958 480.344360,234.663666 
	C481.270294,234.718079 482.825653,236.734787 482.832947,237.853455 
	C482.945679,255.176025 483.392700,272.523102 482.654938,289.817261 
	C481.880249,307.976410 470.078644,319.646606 451.924561,321.211639 
	C446.676483,321.664062 441.189240,321.538391 436.039246,320.523163 
	C420.250610,317.410675 410.919067,305.328979 410.555023,287.510925 
	C410.221649,271.192078 410.514069,254.861115 410.398834,238.536438 
	C410.377960,235.575073 411.254761,234.509644 414.355560,234.406799 
	C429.652344,233.899414 429.645447,233.812943 429.645294,249.197678 
	C429.645142,261.525116 429.619110,273.852692 429.672485,286.179932 
	C429.731537,299.813263 437.236206,306.388611 451.099731,304.620239 
z"/>
<path fill="#083A69" opacity="1.000000" stroke="none" 
	d="
M48.859497,319.838379 
	C44.763283,319.838074 41.141685,319.838074 37.251907,319.838074 
	C37.251907,291.212952 37.251907,263.175781 37.251907,234.868439 
	C56.124420,234.868439 74.689568,234.868439 93.592598,234.868439 
	C93.592598,240.219971 93.592598,245.301056 93.592598,251.120300 
	C81.247704,251.120300 68.888229,251.120300 56.257729,251.120300 
	C56.257729,257.923767 56.257729,263.996368 56.257729,270.595947 
	C67.009300,270.595947 77.601852,270.595947 88.613983,270.595947 
	C88.613983,276.330048 88.613983,281.556915 88.613983,287.322937 
	C78.066750,287.322937 67.467323,287.322937 55.970951,287.322937 
	C55.970951,292.219177 55.969185,296.623566 55.971478,301.027954 
	C55.973557,305.025299 55.972382,309.022675 55.986336,313.019989 
	C56.010090,319.824677 56.014603,319.824646 48.859497,319.838379 
z"/>
<path fill="#0C3C6A" opacity="1.000000" stroke="none" 
	d="
M362.166016,302.926483 
	C370.864929,308.656921 375.964813,307.927094 386.862030,299.466248 
	C390.293335,302.095184 393.812500,304.791443 397.623077,307.710968 
	C392.759369,315.701935 385.701874,319.743774 377.163940,320.814789 
	C364.028687,322.462524 351.858978,319.952271 344.177277,308.063873 
	C336.188934,295.700928 336.369385,282.404388 343.439240,269.664520 
	C350.496399,256.947540 366.778778,251.680115 381.369690,256.683990 
	C396.317535,261.810242 401.238190,275.584198 400.812775,289.259888 
	C400.706482,292.677612 398.551697,292.724304 396.045807,292.716400 
	C385.396667,292.682770 374.747253,292.715759 364.097961,292.723877 
	C362.119659,292.725372 360.141388,292.724060 356.301666,292.724060 
	C358.556976,296.751892 360.215607,299.714142 362.166016,302.926483 
M382.900238,280.621307 
	C381.069580,272.279785 376.416687,268.428650 368.866943,269.006165 
	C362.617310,269.484222 358.175507,274.409729 357.801636,281.371399 
	C366.046204,281.371399 374.287384,281.371399 382.900238,280.621307 
z"/>
<path fill="#0C3D6B" opacity="1.000000" stroke="none" 
	d="
M144.743195,314.102753 
	C143.885788,314.294128 142.759811,314.201874 142.212280,314.720398 
	C136.279602,320.338654 129.034851,321.550385 121.323296,320.936981 
	C111.613388,320.164642 103.822350,313.720032 103.191307,304.031860 
	C102.218575,289.097931 102.508904,274.078674 102.457909,259.094940 
	C102.454651,258.139984 104.116707,257.172913 105.025459,256.232178 
	C105.107491,256.147247 105.348877,256.228210 105.513702,256.209595 
	C119.851837,254.591217 119.844337,254.591049 119.831795,268.794220 
	C119.825027,276.459229 119.815010,284.124481 119.868004,291.789185 
	C119.929123,300.629059 122.832024,304.667175 129.675812,305.585693 
	C136.666229,306.523926 141.615952,302.745056 144.574005,294.199158 
	C145.447876,292.138702 145.942642,290.549500 145.963608,288.954041 
	C146.053345,282.127716 145.898315,275.297180 146.050140,268.473053 
	C146.122330,265.229095 145.947586,261.600281 147.375732,258.948914 
	C147.962875,257.858856 152.622086,259.463654 155.177063,258.828674 
	C160.669907,257.463623 161.019669,260.546906 161.010254,264.510773 
	C160.975449,279.164825 160.781158,293.823151 161.062149,308.471863 
	C161.271378,319.379150 158.986694,318.153076 150.687729,317.810181 
	C148.658615,317.726349 146.722214,315.398773 144.743195,314.102753 
z"/>
<path fill="#0C3C69" opacity="1.000000" stroke="none" 
	d="
M180.719238,255.690308 
	C181.012283,250.662476 181.012283,246.014282 181.012283,240.589157 
	C186.852081,240.304123 192.375183,240.034546 198.351303,239.742859 
	C198.351303,245.389313 198.351303,250.495712 198.351303,256.192322 
	C203.658447,256.192322 208.560715,256.192322 213.765686,256.192322 
	C213.765686,261.197723 213.765686,265.612457 213.765686,270.695618 
	C208.911072,270.695618 204.017960,270.695618 198.673141,270.695618 
	C198.673141,280.752441 198.397354,290.168823 198.791931,299.557037 
	C198.983185,304.107361 202.373993,306.082581 206.872604,305.718903 
	C208.833481,305.560425 210.773758,305.147003 213.498566,304.731049 
	C213.948151,308.886200 214.598969,312.763977 214.636154,316.647644 
	C214.646301,317.706573 212.918564,319.561584 211.803055,319.716522 
	C207.055008,320.375824 202.176956,321.182861 197.457581,320.742859 
	C187.057556,319.773285 181.212677,312.901215 181.048203,302.270874 
	C180.891220,292.125427 180.895721,281.977448 180.813995,271.830719 
	C180.812973,271.703888 180.609909,271.578674 180.128510,271.021210 
	C177.589279,271.021210 174.665298,271.021210 171.361298,271.021210 
	C171.361298,266.050507 171.361298,261.509766 171.361298,256.069946 
	C174.578140,256.069946 177.502182,256.069946 180.719238,255.690308 
z"/>
<path fill="#0A3B6A" opacity="1.000000" stroke="none" 
	d="
M266.384949,273.970398 
	C266.319336,272.593140 266.253723,271.215881 266.639038,269.303772 
	C267.381592,267.366119 267.988861,265.944794 267.907776,264.563873 
	C267.622772,259.708740 270.272797,258.046814 274.583679,257.977722 
	C276.081512,257.953705 277.731110,257.589844 279.033905,258.095795 
	C280.223785,258.557861 281.793610,259.915894 281.894135,260.999817 
	C282.475220,267.263062 282.886017,273.560059 282.945770,279.849518 
	C283.035278,289.270355 282.801086,298.694611 282.677216,308.117065 
	C282.559082,317.100342 280.298126,319.395264 272.217072,317.871399 
	C270.079773,317.468353 268.275879,315.297180 266.318909,313.937897 
	C266.181885,313.832825 266.044891,313.727783 265.542969,313.318970 
	C263.576385,313.805573 261.876984,314.445496 260.389557,315.411713 
	C252.872772,320.294983 241.848099,319.731781 234.271042,315.402924 
	C228.685745,312.212006 228.101089,306.888977 226.034088,301.563293 
	C226.017548,286.434479 226.017365,271.777679 226.017197,257.120911 
	C226.460327,257.072723 226.903442,257.024567 227.988922,257.297577 
	C229.939087,257.735229 231.245804,257.937531 232.554886,257.953949 
	C240.030090,258.047882 239.909210,258.035278 240.063095,265.748352 
	C240.283600,276.801544 240.596680,287.856323 241.170959,298.894745 
	C241.241684,300.254272 243.157715,301.517792 244.218628,302.825806 
	C244.218628,302.825806 244.058792,302.948120 244.122314,303.238647 
	C247.989212,308.926636 253.162506,307.099365 258.132141,306.121613 
	C262.894409,305.184723 265.587189,301.840851 266.771179,297.500458 
	C267.314941,295.507050 266.550598,293.156799 266.379425,290.968384 
	C266.314148,290.534576 266.248840,290.100800 266.639526,289.211670 
	C266.858673,283.827667 266.621796,278.899048 266.384949,273.970398 
z"/>
<path fill="#0A3B69" opacity="1.000000" stroke="none" 
	d="
M312.695648,258.693268 
	C312.877533,260.278503 313.059387,261.863739 313.325256,264.181152 
	C319.458496,256.959259 326.544708,253.712387 335.958466,256.165039 
	C335.625336,261.426208 335.305450,266.478027 334.958893,271.951202 
	C332.932800,271.951202 331.310364,271.936584 329.688263,271.953583 
	C319.213409,272.063477 313.235016,277.803314 313.036835,288.248535 
	C312.876038,296.724548 313.000336,305.205963 312.998383,313.684998 
	C312.997955,315.484070 312.998322,317.283142 312.998322,319.812225 
	C307.990753,319.812225 303.402985,319.812225 298.390625,319.220062 
	C297.648773,316.343353 297.072235,314.060516 297.056946,311.773956 
	C296.967133,298.302734 296.919769,284.829773 297.051117,271.359283 
	C297.099335,266.413727 297.674561,261.473328 298.009338,256.530579 
	C298.460266,256.443481 298.911194,256.356415 299.842194,256.733765 
	C304.288055,257.977020 308.252594,258.762665 312.226624,259.496887 
	C312.329956,259.515961 312.536987,258.973724 312.695648,258.693268 
z"/>
<path fill="#1C4068" opacity="1.000000" stroke="none" 
	d="
M254.738647,373.905701 
	C255.853287,372.549500 256.626984,371.441498 257.889496,369.633453 
	C254.245163,369.419891 251.657745,369.268250 248.761169,369.098511 
	C248.761169,367.324310 248.761169,365.769043 248.761169,363.961121 
	C253.915451,363.961121 258.840881,363.961121 263.732697,363.961121 
	C265.596283,371.337067 261.848633,378.248474 254.816132,380.612183 
	C246.923447,383.264984 238.742401,379.767639 235.596405,372.477600 
	C232.088776,364.349487 235.592224,354.448975 242.611542,351.129059 
	C250.148544,347.564240 258.347290,350.156219 262.830414,357.903717 
	C260.461243,359.130463 258.413544,361.442596 255.602951,358.484131 
	C252.360992,355.071594 248.609604,354.792053 244.802551,357.336609 
	C241.177536,359.759430 240.069351,365.400177 241.978714,370.000946 
	C243.789627,374.364441 247.128052,375.870087 251.607376,375.164093 
	C252.566727,375.012939 253.469086,374.500122 254.738647,373.905701 
z"/>
<path fill="#1A4069" opacity="1.000000" stroke="none" 
	d="
M114.117004,379.004578 
	C107.741837,373.559082 105.670387,365.934784 108.443405,359.085632 
	C110.952187,352.889099 117.242523,349.045685 123.988724,349.668610 
	C130.347427,350.255737 135.089874,353.342438 137.295593,359.403564 
	C139.558563,365.621948 138.842773,371.634399 134.166656,376.622192 
	C129.598129,381.495239 123.816124,382.240845 117.600052,380.645874 
	C116.493065,380.361877 115.485283,379.691254 114.117004,379.004578 
M118.687431,356.797852 
	C114.171310,360.699127 112.897446,365.698883 115.202225,370.476929 
	C117.997536,376.271851 126.018356,377.183197 129.516663,371.933838 
	C132.112320,368.038971 132.150223,363.671295 129.797913,359.676422 
	C127.442795,355.676788 123.675613,354.948700 118.687431,356.797852 
z"/>
<path fill="#173E67" opacity="1.000000" stroke="none" 
	d="
M366.706055,350.072815 
	C371.854675,350.081726 375.715851,351.615479 377.602844,356.248505 
	C379.420532,360.711395 378.009399,364.685486 373.109985,369.480835 
	C375.087769,373.013916 377.088196,376.587433 379.147827,380.266663 
	C374.441315,381.793884 371.313568,380.932251 369.698669,376.396973 
	C369.204163,375.008240 368.508179,373.474670 367.432465,372.566711 
	C366.209503,371.534515 364.495880,370.893219 362.905914,370.635956 
	C362.559753,370.579926 361.528076,372.830353 361.353271,374.093384 
	C361.084045,376.038666 361.282410,378.048676 361.282410,380.436584 
	C359.086761,380.436584 357.213501,380.436584 354.986969,380.436584 
	C354.986969,370.607056 354.986969,360.708069 354.986969,350.066254 
	C358.752899,350.066254 362.503204,350.066254 366.706055,350.072815 
M369.903198,363.641907 
	C370.142975,361.556732 371.107819,357.939911 370.497345,357.650909 
	C367.818909,356.382965 364.684784,356.077759 361.562378,355.389587 
	C361.562378,359.205292 361.562378,361.718811 361.562378,364.746429 
	C364.436523,364.482574 366.841156,364.261810 369.903198,363.641907 
z"/>
<path fill="#20446C" opacity="1.000000" stroke="none" 
	d="
M295.118286,380.718872 
	C288.245667,380.824707 281.780334,380.824707 274.914368,380.824707 
	C274.914368,370.561157 274.914368,360.551971 274.914368,350.284912 
	C281.698792,350.284912 288.288879,350.284912 295.315857,350.284912 
	C295.315857,352.024231 295.315857,353.698883 295.315857,355.841522 
	C290.918182,355.841522 286.664093,355.841522 281.895782,355.841522 
	C281.755951,357.967468 281.643890,359.671753 281.489746,362.015472 
	C285.660950,362.015472 289.380341,362.015472 293.402222,362.015472 
	C293.402222,364.189209 293.402222,365.760529 293.402222,367.965942 
	C289.617432,367.965942 285.897217,367.965942 281.865875,367.965942 
	C281.865875,370.503357 281.865875,372.418854 281.865875,374.927094 
	C286.364197,374.927094 290.917267,374.927094 296.196167,374.927094 
	C295.921967,377.252197 295.723785,378.932617 295.118286,380.718872 
z"/>
<path fill="#1E436A" opacity="1.000000" stroke="none" 
	d="
M92.917297,350.923584 
	C95.541588,353.081940 97.812386,355.110352 100.732407,357.718689 
	C98.145828,359.044861 96.582687,359.846313 95.096947,360.608063 
	C88.481178,355.067719 83.906883,354.463562 80.375603,358.538483 
	C76.961754,362.477875 77.287079,369.765198 81.029037,373.176270 
	C84.921402,376.724457 89.406639,375.947418 94.639816,370.603210 
	C96.128853,371.298737 97.725845,372.044678 99.618782,372.928864 
	C97.549744,378.405853 93.539253,380.700928 88.532051,381.256134 
	C82.080795,381.971466 76.646141,379.928040 73.208351,374.072388 
	C69.803314,368.272491 70.303474,360.122711 74.504189,355.264465 
	C79.409592,349.591248 85.533630,348.204193 92.917297,350.923584 
z"/>
<path fill="#264870" opacity="1.000000" stroke="none" 
	d="
M398.045471,380.910095 
	C394.931763,380.910309 392.305695,380.910309 389.382294,380.910309 
	C389.382294,370.510132 389.382294,360.612518 389.382294,350.360596 
	C396.179169,350.360596 402.892700,350.360596 409.897827,350.360596 
	C409.897827,352.095947 409.897827,353.681732 409.897827,355.886383 
	C405.420410,355.886383 401.028931,355.886383 396.284515,355.886383 
	C396.137177,358.042816 396.029480,359.619293 395.863525,362.048492 
	C398.508545,362.048492 400.767059,362.041992 403.025482,362.049805 
	C408.206390,362.067719 408.206390,362.070557 407.467865,368.042786 
	C403.857727,368.042786 400.130737,368.042786 396.207184,368.042786 
	C396.207184,370.649536 396.207184,372.570526 396.207184,375.154144 
	C399.726776,375.154144 403.016357,375.341492 406.275452,375.106415 
	C410.287872,374.816986 411.420288,376.467255 410.029388,380.909851 
	C406.364929,380.909851 402.449066,380.909851 398.045471,380.910095 
z"/>
<path fill="#1E446D" opacity="1.000000" stroke="none" 
	d="
M344.423950,364.419983 
	C341.121307,371.775909 334.474640,370.331818 328.394867,370.944519 
	C328.225128,374.200653 328.064850,377.275024 327.891144,380.606995 
	C325.703156,380.606995 323.795319,380.606995 321.541290,380.606995 
	C321.541290,370.559784 321.541290,360.673096 321.541290,350.343048 
	C326.704132,350.343048 331.847443,349.815308 336.833984,350.474121 
	C343.336945,351.333282 346.062469,356.686584 344.423950,364.419983 
M330.543945,355.908539 
	C325.375305,357.697449 329.182831,361.533112 327.897095,365.071747 
	C331.031219,364.783325 333.651367,365.099091 335.681061,364.150909 
	C336.940735,363.562439 338.080505,360.975281 337.917145,359.428558 
	C337.520355,355.672577 334.263611,355.901825 330.543945,355.908539 
z"/>
<path fill="#193F69" opacity="1.000000" stroke="none" 
	d="
M441.647522,367.525818 
	C437.074890,369.128021 432.765869,370.447083 427.648956,372.013458 
	C427.552155,374.065186 427.407654,377.128143 427.247375,380.525513 
	C425.124390,380.525513 423.229126,380.525513 420.956177,380.525513 
	C420.956177,370.615784 420.956177,360.740234 420.956177,350.447540 
	C426.169861,350.447540 431.521729,349.699005 436.566956,350.623627 
	C444.067474,351.998260 446.332672,359.955627 441.647522,367.525818 
M427.300598,363.068848 
	C429.586853,366.853912 432.877319,365.162201 435.444641,363.974457 
	C436.592804,363.443237 437.631866,360.385010 437.149536,359.034698 
	C435.454926,354.290527 431.349854,356.047852 427.284393,356.135681 
	C427.284393,358.309082 427.284393,360.254303 427.300598,363.068848 
z"/>
<path fill="#093360" opacity="1.000000" stroke="none" 
	d="
M224.888763,380.666687 
	C218.592163,380.666687 212.295563,380.666687 205.537903,380.666687 
	C205.537903,370.730896 205.537903,360.876343 205.537903,350.141510 
	C211.527451,350.141510 217.750336,350.141510 224.466248,350.594299 
	C224.933990,352.595184 224.908737,354.143280 224.883469,355.691345 
	C221.207596,355.745605 217.531723,355.799835 213.255264,355.589172 
	C212.354324,355.866333 212.053986,356.408356 211.753632,356.950409 
	C211.769394,358.047089 211.785141,359.143768 211.557526,360.795654 
	C211.858124,361.657410 212.402054,361.963959 212.945999,362.270477 
	C215.716629,362.235474 218.522644,361.937683 221.239319,362.303375 
	C222.234344,362.437347 223.017563,364.144531 223.518784,365.770233 
	C220.052032,366.621674 216.948776,366.723175 213.886292,367.131104 
	C213.107132,367.234894 212.457611,368.312042 211.748505,368.941956 
	C211.748520,370.867310 211.748520,372.792694 211.748520,375.313477 
	C216.181824,375.313477 220.067749,375.313477 224.441711,375.641296 
	C225.413223,376.365082 225.896744,376.761108 226.380249,377.157104 
	C226.424377,377.532379 226.468506,377.907623 226.207596,378.646362 
	C225.564636,379.562103 225.226700,380.114410 224.888763,380.666687 
z"/>
<path fill="#173E67" opacity="1.000000" stroke="none" 
	d="
M147.738541,352.233032 
	C149.597275,351.034058 151.446259,350.241913 154.241760,349.044281 
	C154.241760,358.264374 154.241760,366.142761 154.241760,374.791321 
	C158.839493,374.791321 162.865921,374.791321 166.525909,374.791321 
	C166.525909,377.131775 166.525909,378.693573 166.525909,380.563873 
	C160.753220,380.563873 154.579742,380.563873 147.728806,380.563873 
	C147.728806,371.126953 147.728806,361.883423 147.738541,352.233032 
z"/>
<path fill="#143A64" opacity="1.000000" stroke="none" 
	d="
M194.178421,380.586182 
	C188.540192,380.586182 182.901962,380.586182 176.906158,380.586182 
	C176.906158,370.639923 176.906158,360.730316 176.906158,350.461945 
	C178.823654,350.461945 180.691467,350.461945 183.452621,350.461945 
	C183.452621,358.468536 183.452621,366.399200 183.805786,374.823792 
	C184.439041,375.217102 184.719116,375.116455 184.999176,375.015808 
	C187.375015,374.949951 189.750870,374.884094 192.613998,375.317291 
	C193.460327,377.406281 193.819382,378.996246 194.178421,380.586182 
z"/>
<path fill="#284568" opacity="1.000000" stroke="none" 
	d="
M266.218262,314.356415 
	C268.275879,315.297180 270.079773,317.468353 272.217072,317.871399 
	C280.298126,319.395264 282.559082,317.100342 282.677216,308.117065 
	C282.801086,298.694611 283.035278,289.270355 282.945770,279.849518 
	C282.886017,273.560059 282.475220,267.263062 281.894135,260.999817 
	C281.793610,259.915894 280.223785,258.557861 279.033905,258.095795 
	C277.731110,257.589844 276.081512,257.953705 274.583679,257.977722 
	C270.272797,258.046814 267.622772,259.708740 267.907776,264.563873 
	C267.988861,265.944794 267.381592,267.366119 266.739410,268.900421 
	C266.388855,264.933960 266.388855,260.836029 266.388855,256.162720 
	C271.630951,256.162720 276.589111,255.988068 281.514954,256.308868 
	C282.509674,256.373657 284.182892,258.307281 284.192139,259.390808 
	C284.355377,278.535278 284.362061,297.682068 284.163635,316.825897 
	C284.152832,317.869324 282.144196,319.623901 280.905121,319.780853 
	C277.628510,320.195862 274.235992,319.642700 270.940948,319.978455 
	C266.724518,320.408081 265.563019,318.512604 266.218262,314.356415 
z"/>
<path fill="#103157" opacity="1.000000" stroke="none" 
	d="
M144.610870,314.539368 
	C146.722214,315.398773 148.658615,317.726349 150.687729,317.810181 
	C158.986694,318.153076 161.271378,319.379150 161.062149,308.471863 
	C160.781158,293.823151 160.975449,279.164825 161.010254,264.510773 
	C161.019669,260.546906 160.669907,257.463623 155.177063,258.828674 
	C152.622086,259.463654 147.962875,257.858856 147.375732,258.948914 
	C145.947586,261.600281 146.122330,265.229095 146.050140,268.473053 
	C145.898315,275.297180 146.053345,282.127716 145.963608,288.954041 
	C145.942642,290.549500 145.447876,292.138702 144.770401,293.965607 
	C144.369705,281.938995 144.369705,269.677612 144.369705,257.192139 
	C150.390472,257.192139 155.967285,257.192139 161.915924,257.192139 
	C161.915924,277.564301 161.915924,297.901642 161.915924,319.423798 
	C156.529648,319.698608 150.918793,319.984894 144.792511,320.297485 
	C144.665680,318.148010 144.572113,316.562012 144.610870,314.539368 
z"/>
<path fill="#284568" opacity="1.000000" stroke="none" 
	d="
M226.050446,302.035339 
	C228.101089,306.888977 228.685745,312.212006 234.271042,315.402924 
	C241.848099,319.731781 252.872772,320.294983 260.389557,315.411713 
	C261.876984,314.445496 263.576385,313.805573 265.454346,313.075684 
	C258.953888,322.802734 240.008209,323.323517 232.028030,316.868927 
	C227.509262,313.214020 225.165344,308.399353 224.934906,302.294403 
	C225.498093,302.005219 225.772018,302.038666 226.050446,302.035339 
z"/>
<path fill="#284568" opacity="1.000000" stroke="none" 
	d="
M244.188232,302.434265 
	C243.157715,301.517792 241.241684,300.254272 241.170959,298.894745 
	C240.596680,287.856323 240.283600,276.801544 240.063095,265.748352 
	C239.909210,258.035278 240.030090,258.047882 232.554886,257.953949 
	C231.245804,257.937531 229.939087,257.735229 228.320190,257.358459 
	C231.820786,257.037872 235.632339,256.967712 239.444229,256.927307 
	C240.074615,256.920624 240.706375,257.044128 241.853073,257.159210 
	C241.853073,268.343170 241.658325,279.425781 241.958847,290.494965 
	C242.063797,294.361267 243.389572,298.194397 244.188232,302.434265 
z"/>
<path fill="#0B284D" opacity="1.000000" stroke="none" 
	d="
M226.034088,301.563293 
	C225.772018,302.038666 225.498093,302.005219 225.021698,301.934570 
	C224.931381,286.986420 225.048019,272.038788 225.590927,257.106018 
	C226.017365,271.777679 226.017548,286.434479 226.034088,301.563293 
z"/>
<path fill="#76C2C5" opacity="1.000000" stroke="none" 
	d="
M272.507568,49.695786 
	C271.405029,52.044262 269.981262,54.536407 267.955444,58.082287 
	C270.046143,58.717770 272.119232,59.672379 274.277100,59.937737 
	C279.095398,60.530235 283.955963,60.778900 288.880188,61.558891 
	C283.836609,61.929779 278.692200,62.168163 273.596375,61.775791 
	C271.184845,61.590107 268.866180,60.197643 266.505463,59.351929 
	C267.528595,56.935253 268.423950,54.451721 269.636658,52.134232 
	C270.133606,51.184612 271.315826,50.593605 272.507568,49.695786 
z"/>
<path fill="#284568" opacity="1.000000" stroke="none" 
	d="
M266.263184,291.351837 
	C266.550598,293.156799 267.314941,295.507050 266.771179,297.500458 
	C265.587189,301.840851 262.894409,305.184723 258.132141,306.121613 
	C253.162506,307.099365 247.989212,308.926636 244.181274,303.157104 
	C255.155472,309.356598 264.376617,304.718933 266.263184,291.351837 
z"/>
<path fill="#0B284D" opacity="1.000000" stroke="none" 
	d="
M297.598572,256.463531 
	C297.674561,261.473328 297.099335,266.413727 297.051117,271.359283 
	C296.919769,284.829773 296.967133,298.302734 297.056946,311.773956 
	C297.072235,314.060516 297.648773,316.343353 298.008545,319.088440 
	C297.268860,318.629272 295.810608,317.714325 295.804077,316.789185 
	C295.669098,297.568848 295.678436,278.347321 295.759338,259.126434 
	C295.763184,258.214478 296.690552,257.306396 297.598572,256.463531 
z"/>
<path fill="#62BDC5" opacity="1.000000" stroke="none" 
	d="
M289.658264,83.283905 
	C290.122772,83.383217 290.837219,83.903191 290.833069,84.417358 
	C290.746307,95.138298 290.578125,105.858574 290.082520,116.864265 
	C289.683899,106.000313 289.628754,94.851089 289.658264,83.283905 
z"/>
<path fill="#76C2C5" opacity="1.000000" stroke="none" 
	d="
M289.484741,31.830669 
	C286.418579,35.508175 283.010834,39.219345 279.248413,42.940414 
	C282.310242,39.254990 285.726685,35.559662 289.484741,31.830669 
z"/>
<path fill="#284568" opacity="1.000000" stroke="none" 
	d="
M266.265137,274.424988 
	C266.621796,278.899048 266.858673,283.827667 266.736664,288.893433 
	C266.300323,284.313538 266.222839,279.596527 266.265137,274.424988 
z"/>
<path fill="#76C2C5" opacity="1.000000" stroke="none" 
	d="
M304.666077,15.121096 
	C304.050873,20.496265 299.492279,22.914980 295.289856,25.953573 
	C298.082092,22.403351 301.225189,18.834709 304.666077,15.121096 
z"/>
<path fill="#0B284D" opacity="1.000000" stroke="none" 
	d="
M312.670044,258.711121 
	C312.536987,258.973724 312.329956,259.515961 312.226624,259.496887 
	C308.252594,258.762665 304.288055,257.977020 300.167664,256.864685 
	C303.804718,256.461426 307.596375,256.391724 311.729553,256.856506 
	C312.286194,257.814789 312.501343,258.238525 312.716522,258.662262 
	C312.716522,258.662262 312.644470,258.728973 312.670044,258.711121 
z"/>
<path fill="#506787" opacity="1.000000" stroke="none" 
	d="
M212.183746,368.739685 
	C212.457611,368.312042 213.107132,367.234894 213.886292,367.131104 
	C216.948776,366.723175 220.052032,366.621674 223.480286,366.182678 
	C222.818649,366.751862 221.893372,368.075134 220.799957,368.232849 
	C218.114197,368.620209 215.351013,368.470886 212.183746,368.739685 
z"/>
<path fill="#62BDC5" opacity="1.000000" stroke="none" 
	d="
M289.310791,66.300087 
	C289.957123,65.747574 290.488708,65.636971 291.020294,65.526367 
	C290.822174,69.878242 290.624054,74.230125 290.083893,78.864990 
	C289.559937,75.012642 289.377991,70.877319 289.310791,66.300087 
z"/>
<path fill="#284568" opacity="1.000000" stroke="none" 
	d="
M194.637878,380.634827 
	C193.819382,378.996246 193.460327,377.406281 193.049225,375.417725 
	C198.881744,374.984955 196.324997,378.080597 194.637878,380.634827 
z"/>
<path fill="#506787" opacity="1.000000" stroke="none" 
	d="
M225.205872,355.768677 
	C224.908737,354.143280 224.933990,352.595184 224.923248,350.659241 
	C225.100922,352.129547 225.314606,353.987762 225.205872,355.768677 
z"/>
<path fill="#76C2C5" opacity="1.000000" stroke="none" 
	d="
M292.679565,28.092793 
	C292.172119,29.268940 291.364166,30.574858 290.179535,31.855473 
	C290.661621,30.627632 291.520386,29.425097 292.679565,28.092793 
z"/>
<path fill="#76C2C5" opacity="1.000000" stroke="none" 
	d="
M276.446472,45.788559 
	C276.080444,46.502090 275.405182,47.249111 274.363434,47.996498 
	C274.710358,47.271923 275.423767,46.546986 276.446472,45.788559 
z"/>
<path fill="#506787" opacity="1.000000" stroke="none" 
	d="
M212.788330,362.026550 
	C212.402054,361.963959 211.858124,361.657410 211.520630,361.205444 
	C212.028275,361.300903 212.329468,361.541779 212.788330,362.026550 
z"/>
<path fill="#506787" opacity="1.000000" stroke="none" 
	d="
M211.993469,356.791992 
	C212.053986,356.408356 212.354324,355.866333 212.795486,355.530426 
	C212.701950,356.035553 212.467621,356.334564 211.993469,356.791992 
z"/>
<path fill="#506787" opacity="1.000000" stroke="none" 
	d="
M226.526886,376.862793 
	C225.896744,376.761108 225.413223,376.365082 224.889252,375.731598 
	C225.457016,375.852234 226.065262,376.210358 226.526886,376.862793 
z"/>
<path fill="#506787" opacity="1.000000" stroke="none" 
	d="
M225.208557,380.771332 
	C225.226700,380.114410 225.564636,379.562103 226.138062,378.923248 
	C226.091812,379.516449 225.810074,380.196198 225.208557,380.771332 
z"/>
<path fill="#0A3B69" opacity="1.000000" stroke="none" 
	d="
M312.831543,258.407227 
	C312.501343,258.238525 312.286194,257.814789 312.034119,257.033630 
	C312.313690,257.168213 312.630127,257.660187 312.831543,258.407227 
z"/>
<path fill="#76C2C5" opacity="1.000000" stroke="none" 
	d="
M277.684204,44.054771 
	C277.762024,44.485008 277.572449,45.067055 277.079834,45.754433 
	C276.990143,45.308704 277.203491,44.757641 277.684204,44.054771 
z"/>
<path fill="#284568" opacity="1.000000" stroke="none" 
	d="
M184.759583,374.909424 
	C184.719116,375.116455 184.439041,375.217102 184.089081,375.138031 
	C184.186127,374.906555 184.353058,374.854797 184.759583,374.909424 
z"/>
<path fill="#E7EFF2" opacity="1.000000" stroke="none" 
	d="
M382.714417,280.996338 
	C374.287384,281.371399 366.046204,281.371399 357.801636,281.371399 
	C358.175507,274.409729 362.617310,269.484222 368.866943,269.006165 
	C376.416687,268.428650 381.069580,272.279785 382.714417,280.996338 
z"/>
<path fill="#EEF4F7" opacity="1.000000" stroke="none" 
	d="
M119.048042,356.618408 
	C123.675613,354.948700 127.442795,355.676788 129.797913,359.676422 
	C132.150223,363.671295 132.112320,368.038971 129.516663,371.933838 
	C126.018356,377.183197 117.997536,376.271851 115.202225,370.476929 
	C112.897446,365.698883 114.171310,360.699127 119.048042,356.618408 
z"/>
<path fill="#DBE6EE" opacity="1.000000" stroke="none" 
	d="
M369.574524,363.841492 
	C366.841156,364.261810 364.436523,364.482574 361.562378,364.746429 
	C361.562378,361.718811 361.562378,359.205292 361.562378,355.389587 
	C364.684784,356.077759 367.818909,356.382965 370.497345,357.650909 
	C371.107819,357.939911 370.142975,361.556732 369.574524,363.841492 
z"/>
<path fill="#E1EAF2" opacity="1.000000" stroke="none" 
	d="
M330.988647,355.901825 
	C334.263611,355.901825 337.520355,355.672577 337.917145,359.428558 
	C338.080505,360.975281 336.940735,363.562439 335.681061,364.150909 
	C333.651367,365.099091 331.031219,364.783325 327.897095,365.071747 
	C329.182831,361.533112 325.375305,357.697449 330.988647,355.901825 
z"/>
<path fill="#DBE6EE" opacity="1.000000" stroke="none" 
	d="
M427.292480,362.634186 
	C427.284393,360.254303 427.284393,358.309082 427.284393,356.135681 
	C431.349854,356.047852 435.454926,354.290527 437.149536,359.034698 
	C437.631866,360.385010 436.592804,363.443237 435.444641,363.974457 
	C432.877319,365.162201 429.586853,366.853912 427.292480,362.634186 
z"/>
</svg>
